<?xml version="1.0" encoding="utf-8"?>
<svg version="1.1" id="CtrlrX" xmlns="http://www.w3.org/2000/svg" xmlns:xlink="http://www.w3.org/1999/xlink" x="0px" y="0px"
	 width="512px" height="512px" viewBox="0 0 512 512"  xml:space="preserve">
<circle fill="#FFFFFF" cx="256" cy="256" r="256"/>
<path d="M374.7,377.3c16.2,16.1,32.1,32,48,47.9c-79.6,82-222.5,96.4-321.3,10.4C0.5,347.8-10.3,190.9,89.6,90.3
	c91.6-92.2,242.5-92,332.6-1.4c-15.9,16-31.8,32-48.1,48.5c-42.5-39.7-93-55.3-151.1-44.1c-41.6,8-74.9,29.6-100.2,63.4
	c-52.2,69.6-43.5,164,20.4,224C203.2,437.1,306.1,444,374.7,377.3z"/>
<polygon points="374.4,245.3 383.4,236.4 395.6,248.6 386.6,257.5 395.6,266.4 383.4,278.6 374.4,269.7 "/>
<path d="M256.8,113.8c18.9,0,34.5,15.4,34.6,34.2c0.1,19-15.5,34.7-34.6,34.8c-19.1,0.1-34.5-15.5-34.4-34.8
	C222.4,128.9,237.7,113.8,256.8,113.8z"/>
<path d="M179.4,145.8c18.9,0,34.5,15.4,34.6,34.2c0.1,19-15.5,34.7-34.6,34.8c-19.1,0.1-34.5-15.5-34.4-34.8
	C145,160.9,160.3,145.8,179.4,145.8z"/>
<path d="M147.4,222.9c18.9,0,34.5,15.4,34.6,34.2c0.1,19-15.5,34.7-34.6,34.8c-19.1,0.1-34.5-15.5-34.4-34.8
	C113,238,128.3,222.9,147.4,222.9z"/>
<path d="M179.4,300c18.9,0,34.5,15.4,34.6,34.2c0.1,19-15.5,34.7-34.6,34.8c-19.1,0.1-34.5-15.5-34.4-34.8
	C145,315.2,160.3,300,179.4,300z"/>
<path d="M256.8,332.1c18.9,0,34.5,15.4,34.6,34.2c0.1,19-15.5,34.7-34.6,34.8c-19.1,0.1-34.5-15.5-34.4-34.8
	C222.4,347.3,237.7,332.1,256.8,332.1z"/>
<path d="M256.8,332.1c18.9,0,34.5,15.4,34.6,34.2c0.1,19-15.5,34.7-34.6,34.8c-19.1,0.1-34.5-15.5-34.4-34.8
	C222.4,347.3,237.7,332.1,256.8,332.1z"/>
<polygon points="374.4,245.3 374.4,229.4 337.5,229.4 337.5,285.7 374.4,285.7 374.4,269.7 365.4,278.6 353.2,266.4 362.1,257.5 
	353.2,248.6 365.4,236.4 "/>
</svg>
