<?xml version="1.0" encoding="utf-8"?>
<svg version="1.1" id="Calque_1" xmlns="http://www.w3.org/2000/svg" xmlns:xlink="http://www.w3.org/1999/xlink" x="0px" y="0px"
	 width="1093px" height="250px" viewBox="291 132 1093 250" xml:space="preserve">
<g>
	<g>
		<path fill="#FFFFFF" d="M1049.6,382H755.7c-19.3,0-35-15.8-35-35V167c0-19.3,15.8-35,35-35h293.9c19.3,0,35,15.8,35,35V347
			C1084.6,366.2,1068.9,382,1049.6,382z"/>
	</g>
	<g>
		<path fill="#FFFFFF" d="M620,382H326c-19.3,0-35-15.8-35-35V167c0-19.3,15.8-35,35-35H620c19.3,0,35,15.8,35,35V347
			C655,366.2,639.2,382,620,382z"/>
	</g>
	<g>
		<circle fill="#FFFFFF" cx="1259" cy="257" r="125"/>
	</g>
	<path d="M304,182c23,0,46,0,69.2,0c0.3,1,0.5,1.9,0.7,3.1c-6.1,1.9-13.3-0.9-18.9,4.9c10.9,15.9,21.7,31.6,32.8,47.6
		c1-1.1,1.6-1.6,2-2.2c8.3-12.7,16.5-25.4,24.8-38.1c3.4-5.2,2.6-7.7-3.4-9.5c-3.3-1-6.8-1.3-10.3-1.8c-1.6-0.2-3.3-0.2-5.3-0.3
		c-0.1-1.1-0.2-2-0.4-3.4c9.7,0,19.1,0,28.6,0c4.6-7.8,11.3-12.8,19.2-15.8c6.3-2.4,13-4.1,19.7-5.6c16.5-3.7,32.8-1.2,48.9,2.8
		c3.6,0.9,7.1,1.9,10.7,2.4c8.5,1.3,9.9,0.6,14.4-6.7c0.7,0,1.5-0.1,2.3-0.1c0.7,0,1.3,0.2,2.2,0.3c0,11.1,0,22.2,0,33.1
		c-3.4,1.9-5.2,0.1-6.9-2.3c-6.3,2.9-9.6,8.2-12.7,14.1c-1.6-0.5-2.9-0.9-4.4-1.3c0-7,0-13.6,0-20.8c3.5-0.2,6.9-0.3,11-0.5
		c-1-1.3-1.5-2.3-2.3-2.9c-8.8-7.1-19-10.9-30-12.9c-8.2-1.5-16.6-1.5-24.9-0.2c-5.2,0.8-10.1,2.5-14.3,5.6
		c-6,4.5-6.1,10.7,0.2,14.7c4.6,2.9,9.6,5.4,14.8,7.1c14.6,4.6,29.5,8.5,44,13.1c7.7,2.5,15.3,5.8,22.6,9.3c3.6,1.8,6.9,4.6,9.7,7.6
		c6.7,7.3,6.8,17.1,0,24.4c-3.2,3.5-7.3,6.4-11.4,8.8c-14,7.9-29.5,9.9-45.3,10.3c-14,0.4-27.5-2-41.1-5.1
		c-5.1-1.2-10.2-1.8-15.2,0.2c-2.1,0.9-4.1,2.1-6,3.4c-1.8,1.3-3.5,1.8-5.8,0.7c0-12.3,0-24.7,0-37.4c1.5,0,2.8,0,4,0
		c0.4,0.5,0.8,0.8,0.9,1.3c5.7,13.1,16,21.1,28.9,26.1c15.4,6,31.4,7.8,47.6,3.9c4.4-1,8.8-3.2,12.6-5.8c6.5-4.5,6.5-10.7,0.3-15.7
		c-2.8-2.3-6-4.4-9.4-5.5c-10.4-3.6-20.9-6.7-31.4-9.9c-12.9-3.9-26.1-7.1-37.9-13.8c-4-2.3-7.6-5.3-11.2-7.9
		c2.3-5.7,4.4-8.4,10.4-13.9c-3.8-0.5-7.3,1.2-10,5.1c-3.6,5.2-7.1,10.5-10.6,15.8c-11.2,16.7-22.4,33.5-33.6,50.2
		c-1.3,1.9-2.7,3.8-4.1,5.9c-2.9,0-5.9,0-9.3,0c-0.7-0.9-1.7-2-2.5-3.3c-14.7-22-29.6-44-43.9-66.3c-4.3-6.6-9.7-9.1-17-9.1
		c-1,0-2,0.1-3,0.2C304,184.7,304,183.3,304,182z"/>
	<path d="M443.8,343c-3.8,4.9-7.4,9.6-11.2,14.6c-30.9,0-62,0-94.1,0c16.8-22.5,33.3-44.4,49.7-66.3c31.2,0,62.2,0,94,0
		c-3.5,4.8-6.5,9-10.2,14c12.3,1.1,24,0,36.5,0.7c-2,2.9-3.5,5.1-5.3,7.6c-12.6,0-25,0-37.6,0c-5.2,7-10.3,13.7-16,21.3
		c7.1,0.6,13.1,0.2,19.2,0.3c5.9,0.1,11.8,0,19,0c-2.3,3.2-3.8,5.3-5.5,7.7C469.6,343,456.8,343,443.8,343z"/>
	<path d="M529.8,320.7c5.2-7.2,10-13.9,15.4-21.5c-5.8-0.7-10.6-0.3-15.5-0.3c-5-0.1-10,0-15,0s-10,0-16.1,0
		c2.1-2.9,3.6-5.1,5.3-7.4c35.1,0,70,0,105.9,0c-16.6,22.5-33.1,44.3-49.5,66.2c-35,0-70,0-105.9,0c2-2.8,3.6-5,5.4-7.4
		c16.2,0,32.4,0,48.8,0c5-7,10-13.8,15.5-21.5c-12.9-1.1-25.1,0-37.6-0.7c0.5-3.3,2.9-4.8,4.7-7.3
		C503.9,320.7,516.7,320.7,529.8,320.7z"/>
	<path d="M560.6,185.9c-5.1,0-9.7,0-14.6,0c0-1.4,0-2.5,0-3.7c30.2,0,60.2,0,90.5,0c0,8.8,0,17.5,0,26.2c-3.2,0.9-3.4-1.6-4.2-3.3
		c-3.4-7.4-8.5-13-16-16.4c-7.3-3.3-14.8-3.2-22.9-2.6c-0.2,1.3-0.6,2.6-0.6,3.8c0,20-0.1,40,0,59.9c0,7.4,1.8,9.4,9.2,10.3
		c2.5,0.3,5,0.4,7.5,0.6c1.6,0.1,2.6,0.8,1.8,3.1c-1.4,0.1-3,0.3-4.6,0.3c-19.8,0-39.6,0-59.4,0c-1.3,0-2.7,0.1-3.9-0.3
		c-0.6-0.2-0.9-1.4-1.6-2.7c3.9-0.4,7.2-0.6,10.4-1.1c1.8-0.3,3.6-0.8,5.2-1.5c2.1-1,3.3-2.8,3.5-5.1c0.1-1.3,0.2-2.7,0.2-4
		c0-19.6,0-39.3,0-58.9C560.9,189.2,560.7,187.9,560.6,185.9z"/>
	<path d="M902.6,182.9c36.6,0,66.1,29.4,66.2,66c0.1,37-29.3,66.7-66.1,66.8c-36.6,0.1-66.3-29.8-66.2-66.6
		C836.5,212.4,866,183,902.6,182.9z"/>
	<path d="M782,152c3.7,3,7.1,5.7,10.7,8.7c-20.3,26.4-31,56-31,89.1c0.1,33,10.8,62.4,31.2,88.8c-3.7,3-7.1,5.8-10.8,8.8
		c-5.3-5.9-9.4-12.3-13.3-18.9c-10.9-18.8-17.8-39.1-20.2-60.7c-0.7-5.9-1.7-11.9-1.5-17.9c0.9-34.9,11-66.8,32.2-94.9
		C780,154.2,780.8,153.4,782,152z"/>
	<path d="M1012.7,339.1c41.2-60,41.2-119,0.2-178.7c3.1-2.5,6.6-5.3,10-8c44.5,51.7,47.8,138,0,195
		C1019.4,344.6,1016,341.8,1012.7,339.1z"/>
	<path d="M1001.7,330c-3.6-2.9-6.9-5.6-10.3-8.3c33.1-47.8,33.1-95.4,0.1-143.9c3.1-2.6,6.5-5.4,9.9-8.2
		C1036.2,208.1,1042.9,280.6,1001.7,330z"/>
	<path d="M803.4,169.5c3.6,3,6.9,5.7,10.5,8.7c-16.4,21.2-24.9,44.9-24.9,71.5s8.6,50.3,25,71.7c-1.9,1.6-3.7,3.1-5.4,4.5
		s-3.3,2.7-5,4.1C767.2,288.1,763.9,216.5,803.4,169.5z"/>
	<path d="M835.6,304.1c-3.4,2.8-6.8,5.6-10.3,8.4c-27.6-30.7-32.1-87.4-0.4-125.4c3.7,2.6,7.2,5.4,10.5,8.5
		C810.5,231.8,810.5,267.8,835.6,304.1z"/>
	<path d="M979.9,312.6c-3.4-2.8-6.8-5.6-10.5-8.7c12.4-16.1,19-34,19-53.9s-6.2-37.9-18.9-54.3c3.5-3,6.9-5.8,10.2-8.6
		C1007.2,216.2,1012.2,275,979.9,312.6z"/>
	<path d="M871.6,356.3c-1.3,4-2.4,7.8-3.7,11.8c-2.1,0-4,0-6.6,0c4.6-14.2,9-27.9,13.4-41.6c3,0,5.5,0,8.3,0
		c4.4,13.7,8.7,27.2,13.3,41.4c-2.5,0-4.5,0-6.8,0c-1.3-3.8-2.5-7.6-3.8-11.7C881.1,356.3,876.7,356.3,871.6,356.3z M884.3,350.9
		c-2-6.5-3.7-12.1-5.4-17.7c-0.3,0-0.7,0-1,0c-1.6,5.7-3.2,11.5-5,17.7C877,350.9,880.2,350.9,884.3,350.9z"/>
	<path d="M936.7,326.5c2.2,0,3.6,0,5.1,0c0.3,0.6,0.7,1,0.7,1.4c0,8.8,0.5,17.6-0.1,26.4c-0.8,12.4-9.6,16.4-20.3,14.4
		c-4.7-0.9-8-4-9.4-8.7c-0.7-2.4-1.2-4.9-1.2-7.3c-0.2-8-0.1-16-0.1-23.9c0-0.6,0.2-1.3,0.4-2.1c1.9,0,3.6,0,5.6,0
		c0.1,1.9,0.2,3.5,0.2,5.2c0,6.3-0.1,12.6,0.1,19c0.1,2.6,0.5,5.3,1.4,7.8c1.3,3.6,4.6,5.7,8.2,5.4c3.8-0.3,6.8-2.1,7.9-5.8
		c0.7-2.5,1.1-5.2,1.1-7.8c0.2-6.1,0-12.3,0.1-18.5C936.4,330.2,936.6,328.6,936.7,326.5z"/>
	<path d="M1254.5,273.6c0.2,1.9,0.5,3.3,0.5,4.8c-0.2,19.8-0.4,39.7-0.7,59.5c0,0.3,0,0.7,0,0.9c-0.4,7-2.2,8.7-9,7.7
		c-12.2-1.8-23.8-5-33.9-12.4c-2.2-1.6-4.2-3.3-6.1-5.1c-2.9-2.7-3-5.1-0.5-8.2c1.3-1.6,2.7-3,4.1-4.5c12.8-12.9,25.7-26,38.6-38.9
		C1249.2,275.8,1250.7,273.7,1254.5,273.6z"/>
	<path d="M1264.9,240.1c-0.2-1.6-0.5-3.3-0.5-4.9c0.2-19.7,0.3-39.4,0.6-59.1c0.1-8.8,1.9-10.1,10.6-8.7
		c11.3,1.8,22.2,4.9,31.8,11.7c2.4,1.7,4.7,3.7,6.8,5.6c2.7,2.6,2.8,4.8,0.5,7.8c-1.3,1.7-2.9,3.3-4.4,4.8
		c-12.9,13.1-26,26.2-39,39.2c-1.5,1.5-3.3,2.6-5,3.9C1265.8,240.5,1265.3,240.3,1264.9,240.1z"/>
	<path d="M1275.5,262.6c2.1-0.2,3.6-0.5,5.1-0.4c19.5,0.1,39,0.3,58.5,0.5c9.3,0.1,10.6,1.9,9.2,11.1c-2.1,13-6,25.1-14.6,35.4
		c-5.4,6.6-7.3,6.8-13.5,0.7c-13.6-13.5-27.2-27.1-40.8-40.7C1277.6,267.6,1275.8,266.1,1275.5,262.6z"/>
	<path d="M1243.6,250.9c-1.4,0.3-2.9,0.8-4.3,0.7c-20.3-0.2-40.6-0.4-61-0.7c-1.2,0-2.5-0.2-3.8-0.5c-3-0.8-4.5-2.3-4.2-5.3
		c1.5-16.2,6.1-31.2,17.6-43.4c3-3.1,5.4-3.2,8.9,0.1c4.9,4.6,9.7,9.3,14.4,14.1c9.2,9.2,18.4,18.3,27.5,27.6
		c1.9,1.9,3.4,3.9,5.2,5.9C1243.9,250,1243.8,250.4,1243.6,250.9z"/>
	<path d="M1171.4,266.4c2-3.1,4.5-3.2,7-3.3c11.1-0.2,22.1-0.5,33.2-0.7c9.2-0.1,18.4-0.1,27.7-0.1c1.8,0,3.6,0.4,6.4,0.7
		c-1.7,2-2.5,3.2-3.6,4.2c-14.3,14.1-28.8,28.2-43.1,42.3c-0.4,0.3-0.7,0.7-1,0.9c-4,3.4-6.8,3.5-9.8-0.8c-4.2-6-8.2-12.2-11.5-18.7
		c-3.3-6.3-4.9-13.1-5.2-20.3C1171.3,269.1,1171.4,267.4,1171.4,266.4z"/>
	<path d="M1268.8,346c-3.3-2-3.5-4.3-3.6-6.7c-0.2-9.2-0.5-18.4-0.6-27.7c-0.1-11.3-0.1-22.5-0.1-33.8c0-1.8,0.3-3.6,0.5-6.1
		c1.6,1,2.6,1.4,3.3,2.1c14.6,14.9,29.3,29.9,43.8,44.9c4.2,4.3,3.8,7.1-0.9,10.9c-9.5,7.4-19.7,13.2-31.7,15.4
		C1275.7,345.8,1271.8,345.8,1268.8,346z"/>
	<path d="M1274.3,249.7c0.8-1,1.7-2.2,2.7-3.1c14.3-14.1,28.7-28.2,43.1-42.3c0.8-0.8,1.8-1.8,2.8-2.4c2.7-1.7,5.1-1.6,7.1,0.8
		c10,12.2,17.4,25.5,17.8,41.8c0.1,4.1-1.2,5.7-5.4,6c-5.4,0.4-10.9,0.5-16.4,0.5c-15.3,0.1-30.6,0.2-45.9,0.3
		c-1.8,0-3.6-0.3-5.4-0.4C1274.6,250.6,1274.4,250.2,1274.3,249.7z"/>
	<path d="M1253.8,242.4c-2.4-2.3-4.1-3.7-5.6-5.2c-13.2-13.5-26.4-27-39.6-40.6c-1.1-1.1-2.2-2.3-3.1-3.6c-1.9-2.8-1.9-5.4,0.8-7.5
		c11.8-9.7,24.7-17,40.4-17.7c5.6-0.3,7.1,0.9,7.2,6.6c0.3,21.1,0.5,42.1,0.7,63.2C1254.6,238.9,1254.2,240,1253.8,242.4z"/>
	<path d="M1260.2,159.8c53.6,0,97.2,43.5,97.2,97.2s-43.5,97.2-97.2,97.2c-53.6,0-97.2-43.5-97.2-97.2S1206.5,159.8,1260.2,159.8
		 M1260.2,148.5c-29,0-56.2,11.3-76.7,31.8c-20.4,20.4-31.8,47.7-31.8,76.7c0,29,11.3,56.2,31.8,76.7c20.4,20.4,47.7,31.8,76.7,31.8
		c29,0,56.2-11.3,76.7-31.8c20.4-20.4,31.8-47.7,31.8-76.7s-11.3-56.2-31.8-76.7C1316.4,159.8,1289.2,148.5,1260.2,148.5
		L1260.2,148.5z"/>
</g>
</svg>
